<svg id="Layer_1" data-name="Layer 1" xmlns="http://www.w3.org/2000/svg" viewBox="0 0 111.55 137.1"><defs><style>.cls-1{fill:#f7d23a;}.cls-2{fill:#ed4d50;}</style></defs><title>Budget_medium</title><path class="cls-1" d="M56.15,111.7V110a3.33,3.33,0,0,1,.2-1.7,1.5,1.5,0,0,1,1.1-.4,5.81,5.81,0,0,1,1-.1,1.07,1.07,0,0,1,1.1.5,6.28,6.28,0,0,1,.3,1.9v1.7a6.34,6.34,0,0,1,2.3,1.6,10.53,10.53,0,0,1,1.7,2.9,7.24,7.24,0,0,1,.6,2.1,1.69,1.69,0,0,1-.3,1,1.21,1.21,0,0,1-1,.3,5.08,5.08,0,0,1-1.7-.3l-.3-.2-1-2.1c-.3-.5-.6-1-.9-1.4a1.38,1.38,0,0,1-.3-.4,2.18,2.18,0,0,0-.5-.4,1.85,1.85,0,0,0-.7-.2,1.71,1.71,0,0,0-1.6,1.1l-.3.8a4.53,4.53,0,0,0-.3,1.6,2.46,2.46,0,0,0,2,2.5l1.2.4.9.2.3.1,1.8.6a5.32,5.32,0,0,1,2.2,1.2,2.56,2.56,0,0,1,.6,1.9,5.7,5.7,0,0,1-.1,1.3,5,5,0,0,1-.4,1.3,13,13,0,0,1-1,1.5,9.27,9.27,0,0,1-1.4,1.4,5.09,5.09,0,0,1-1.7.7,2.3,2.3,0,0,0-.4,1.4v.5a1.27,1.27,0,0,0,.1.6v.3c0,.4-.1.7-.4.8s-.5.2-.8.3l-.8.1c-.2,0-.5.1-.7.1-.5,0-.7-.1-.8-.4a12.25,12.25,0,0,1-.2-1.9v-2h-.2l-1.2-.4a9.17,9.17,0,0,1-2.3-.9,4,4,0,0,1-1.3-1.3c-.3-.6-.6-1.1-.9-1.7a2,2,0,0,1-.3-1.1,1.17,1.17,0,0,1,.8-1.1,2.93,2.93,0,0,1,1.6-.4,2.49,2.49,0,0,1,2.4,1.9,6,6,0,0,0,.9,1.5,1.74,1.74,0,0,0,1.4.3h1.2a1.74,1.74,0,0,0,1.2-.6,1.62,1.62,0,0,0-.3-2.3c-.1,0-.1-.1-.2-.1a15.65,15.65,0,0,0-3.8-1.4,5.58,5.58,0,0,1-3.3-1.9,5.78,5.78,0,0,1-1.2-3.6,7.46,7.46,0,0,1,.4-2.6,8.68,8.68,0,0,1,1.7-2.2,3.59,3.59,0,0,1,1-.7,13.36,13.36,0,0,1,1.8-.7Z"/><path class="cls-1" d="M72.65,111.7V110a3.33,3.33,0,0,1,.2-1.7,1.5,1.5,0,0,1,1.1-.4,5.81,5.81,0,0,1,1-.1,1.07,1.07,0,0,1,1.1.5,6.28,6.28,0,0,1,.3,1.9v1.7a6.34,6.34,0,0,1,2.3,1.6,10.53,10.53,0,0,1,1.7,2.9,7.24,7.24,0,0,1,.6,2.1,1.69,1.69,0,0,1-.3,1,1.21,1.21,0,0,1-1,.3,5.08,5.08,0,0,1-1.7-.3l-.3-.2-1-2.1c-.3-.5-.6-1-.9-1.4a1.38,1.38,0,0,1-.3-.4,2.18,2.18,0,0,0-.5-.4,1.85,1.85,0,0,0-.7-.2,1.71,1.71,0,0,0-1.6,1.1l-.3.8a4.53,4.53,0,0,0-.3,1.6,2.46,2.46,0,0,0,2,2.5l1.2.4.9.2.3.1,1.8.6a5.32,5.32,0,0,1,2.2,1.2,2.56,2.56,0,0,1,.6,1.9,5.7,5.7,0,0,1-.1,1.3,5,5,0,0,1-.4,1.3,13,13,0,0,1-1,1.5,9.27,9.27,0,0,1-1.4,1.4,5.09,5.09,0,0,1-1.7.7,2.3,2.3,0,0,0-.4,1.4v.5a1.27,1.27,0,0,0,.1.6v.3c0,.4-.1.7-.4.8s-.5.2-.8.3l-.8.1c-.2,0-.5.1-.7.1-.5,0-.7-.1-.8-.4a12.25,12.25,0,0,1-.2-1.9v-2h-.2l-1.2-.4a9.17,9.17,0,0,1-2.3-.9,4,4,0,0,1-1.3-1.3c-.3-.6-.6-1.1-.9-1.7a2,2,0,0,1-.3-1.1,1.17,1.17,0,0,1,.8-1.1,2.93,2.93,0,0,1,1.6-.4,2.49,2.49,0,0,1,2.4,1.9,6,6,0,0,0,.9,1.5,1.74,1.74,0,0,0,1.4.3h1.2a1.74,1.74,0,0,0,1.2-.6,1.62,1.62,0,0,0-.3-2.3c-.1,0-.1-.1-.2-.1a15.65,15.65,0,0,0-3.8-1.4,5.58,5.58,0,0,1-3.3-1.9,5.78,5.78,0,0,1-1.2-3.6,7.46,7.46,0,0,1,.4-2.6,8.68,8.68,0,0,1,1.7-2.2,3.59,3.59,0,0,1,1-.7,13.36,13.36,0,0,1,1.8-.7Z"/><path class="cls-2" d="M27.25,41.8c11.8,10.1,16.1,18.7,17.5,26.2,1.1,6.1,9.2,18.4,16.5,24.4,1.6,1.3,19.7-10.9,19.4-11.8s-13.4-12.5-17-23.4c-3.5-10.4-12.3-23.8-14.9-25S27.25,41.8,27.25,41.8Z"/><path class="cls-1" d="M27.35,41.9l2,1.6,2,1.7c.7.6,1.3,1.2,1.9,1.8s1.2,1.2,1.8,1.9a51.79,51.79,0,0,1,6.4,8.4,26.52,26.52,0,0,1,2.3,4.8,24.61,24.61,0,0,1,1.5,5.1l.3,1.3a5.64,5.64,0,0,0,.4,1.2l.9,2.4c.7,1.6,1.5,3.1,2.3,4.6a71.18,71.18,0,0,0,5.7,8.6c1.1,1.4,2.1,2.7,3.3,4,.6.6,1.2,1.3,1.8,1.9a9,9,0,0,0,1,.9l.4.4h.5a11.72,11.72,0,0,0,2.4-.9c.8-.4,1.5-.8,2.3-1.2,1.5-.9,3-1.8,4.4-2.7a41.46,41.46,0,0,0,4.3-3c1.4-1,2.8-2.1,4.1-3.2.2-.1.3-.3.4-.4l.2-.2c.1-.1.1-.2.1-.1v.4l-.1-.1-.2-.2-.4-.5-1.8-1.8c-1.2-1.2-2.4-2.5-3.6-3.8a74,74,0,0,1-6.6-8.2c-1-1.5-1.9-3-2.8-4.5l-1.2-2.4a26,26,0,0,1-1-2.5,79.17,79.17,0,0,0-4.2-9.4A98.47,98.47,0,0,0,53,38.9a39.07,39.07,0,0,0-3-4.1c-.3-.3-.5-.6-.8-.9l-.4-.4c-.1-.1-.2-.1-.3-.2a3.4,3.4,0,0,0-1,.1l-1.2.3a46.81,46.81,0,0,0-4.8,1.8c-1.6.7-3.2,1.4-4.8,2.2S33.55,39.2,32,40l-2.3,1.2-1.2.6-.6.3-.3.1-.2-.3Zm-.2,0,.1-.1h.1l.1-.1.3-.2.6-.3,1.1-.7,2.3-1.3c1.5-.9,3-1.7,4.6-2.6s3.1-1.6,4.7-2.4A42.48,42.48,0,0,1,46,32.1a6.47,6.47,0,0,1,1.3-.4,4.33,4.33,0,0,1,1.6-.1.76.76,0,0,1,.5.2c.1.1.2.1.4.2a2.65,2.65,0,0,1,.6.5,9.43,9.43,0,0,1,1,1,33.92,33.92,0,0,1,3.3,4.2,83.3,83.3,0,0,1,5.5,9,69.21,69.21,0,0,1,4.4,9.6,17,17,0,0,0,.9,2.4,24,24,0,0,0,1.1,2.3,39.07,39.07,0,0,0,2.6,4.4,71.39,71.39,0,0,0,6.3,8.2c1.1,1.3,2.3,2.6,3.5,3.9l1.8,1.9.4.5.2.3c0,.1.1.1.1.2s.1.1.1.2a.45.45,0,0,1,0,.5c0,.1-.1.2-.2.3s-.1.1-.1.2-.2.2-.3.3-.4.3-.5.4a102.23,102.23,0,0,1-8.7,5.9l-4.5,2.7A25.32,25.32,0,0,1,65,92.1a10.89,10.89,0,0,1-2.5,1,1.1,1.1,0,0,1-.8,0c-.1-.1-.2-.1-.4-.2l-.3-.2c-.3-.3-.7-.6-1-.9-.7-.6-1.3-1.2-1.9-1.8a44.93,44.93,0,0,1-3.6-3.9,63.64,63.64,0,0,1-6.2-8.5c-.9-1.5-1.7-3.1-2.5-4.7a26,26,0,0,1-1-2.5c-.1-.4-.3-.9-.4-1.3l-.3-1.3a27.46,27.46,0,0,0-1.4-4.9,39.58,39.58,0,0,0-2.1-4.7,53.87,53.87,0,0,0-5.9-8.5l-1.7-2c-.6-.6-1.2-1.3-1.8-1.9s-1.2-1.2-1.8-1.9a19.92,19.92,0,0,0-2.2-2Z"/><path class="cls-2" d="M35.05,34.5c9.8,11.7,11.4,20.9,12.3,28.4,1,7.7,5.7,20.1,11.7,26.5,1,1.1,21.5-7.9,21.3-8.8S69.55,66.3,68,55c-1.5-10.8-7.7-25.3-10-26.8S35.05,34.5,35.05,34.5Z"/><path class="cls-1" d="M35.15,34.5l1.7,1.9c.5.6,1.1,1.3,1.6,2L40,40.5a16.44,16.44,0,0,1,1.4,2.2,51.76,51.76,0,0,1,4.5,9.5,51.59,51.59,0,0,1,2.2,10.2,55,55,0,0,0,2.4,9.9,86.23,86.23,0,0,0,3.9,9.5A39.07,39.07,0,0,0,57,86.2l1.5,2.1c.1.2.3.3.4.5l.2.2.1.1.1.1h.4c.2,0,.4-.1.6-.1a28.07,28.07,0,0,0,4.9-1.6c1.6-.6,3.2-1.3,4.8-2s3.1-1.4,4.7-2.2,3.1-1.5,4.5-2.4c.2-.1.3-.2.5-.3l.2-.2h0v.4a.1.1,0,0,0-.1-.1l-.2-.3-.4-.5-1.5-2.1c-1-1.4-2-2.9-2.9-4.3a62.84,62.84,0,0,1-5-9.2,49.4,49.4,0,0,1-1.9-4.9,25,25,0,0,1-.7-2.6,5.85,5.85,0,0,1-.2-1.3l-.2-1.3a65.21,65.21,0,0,0-2.5-9.9c-.5-1.6-1.1-3.2-1.7-4.9s-1.2-3.2-1.9-4.8a31.68,31.68,0,0,0-2.3-4.5,6.07,6.07,0,0,0-.7-1c-.3-.3-.2-.3-.6-.3a9.74,9.74,0,0,0-2.4.2,79.87,79.87,0,0,0-9.9,2.6c-1.6.5-3.3,1-4.9,1.5l-2.5.8-1.2.4-.6.2-.3.1-.2.1.1-.2Zm-.2-.1.1-.1h.1l.1-.1.3-.1.6-.2,1.2-.5,2.4-1c1.6-.6,3.2-1.2,4.9-1.8,3.3-1.2,6.6-2.2,10-3.1a12.65,12.65,0,0,1,2.8-.3,2.92,2.92,0,0,1,.9.2.35.35,0,0,1,.2.1c.1,0,.1.1.2.1l.3.3A10.63,10.63,0,0,1,60,29a41.72,41.72,0,0,1,2.6,4.6,72.15,72.15,0,0,1,3.8,9.7A69.27,69.27,0,0,1,69,53.5c.1.4.1.9.2,1.3s.1.8.2,1.2l.6,2.4a45.88,45.88,0,0,0,1.7,4.8,78.28,78.28,0,0,0,4.7,9.1c.9,1.5,1.8,2.9,2.7,4.4l1.4,2.2.3.6.2.3c.1.1.1.3.2.4v.5c0,.1-.1.1-.1.2l-.2.2c-.1.1-.2.2-.3.2a2.09,2.09,0,0,0-.6.4c-3.1,1.7-6.3,2.9-9.5,4.3-1.6.6-3.2,1.3-4.8,1.9s-3.3,1.2-4.9,1.7a1.48,1.48,0,0,1-.7.1h-.4a.9.9,0,0,1-.5-.1.1.1,0,0,1-.1-.1l-.1-.1-.1-.1-.1-.1-.2-.2a1.76,1.76,0,0,1-.4-.5l-1.7-2c-1-1.4-2-2.9-2.9-4.4a54.62,54.62,0,0,1-4.4-9.5,44.74,44.74,0,0,1-2.5-10.2,57.14,57.14,0,0,0-2-10,51.72,51.72,0,0,0-3.9-9.4l-1.3-2.2c-.5-.7-.9-1.5-1.4-2.2l-1.5-2.1A16.6,16.6,0,0,1,35,34.4Z"/><path class="cls-2" d="M46.05,28.2c7.6,12.9,8.6,22.2,7.3,29.7-1.1,6.1,3.7,19.5,7,27.8,1.2,3.1,22.6-4.9,22.6-5.9s-8.2-15.6-7.8-27c.4-10.8-3.3-26-5.2-27.8S46.05,28.2,46.05,28.2Z"/><path class="cls-1" d="M46.15,28.3l1.4,2.1,1.3,2.2,1.2,2.3c.4.8.7,1.6,1.1,2.4a44.26,44.26,0,0,1,3,10,30.85,30.85,0,0,1,0,10.5,20.08,20.08,0,0,0,0,4.9c.2,1.7.6,3.3.9,5q1.2,5,2.7,9.9c.5,1.6,1.1,3.3,1.6,4.9l.9,2.4.2.6v.2c0,.1.1.1.2.1a2,2,0,0,0,1.1.3,10.55,10.55,0,0,0,2.5-.2,22.11,22.11,0,0,0,2.5-.5c1.7-.4,3.3-.9,4.9-1.4a46.81,46.81,0,0,0,4.8-1.8c1.6-.7,3.2-1.3,4.7-2.1.3-.2.7-.4,1-.6h0v.3h0a.31.31,0,0,0-.1-.2,1.42,1.42,0,0,1-.2-.6l-1.1-2.3c-.7-1.6-1.5-3.1-2.1-4.8a68,68,0,0,1-3.4-9.9,43.45,43.45,0,0,1-1-5.2,24.52,24.52,0,0,1-.2-2.7V51.5a87.39,87.39,0,0,0-.7-10.2c-.2-1.7-.5-3.4-.8-5s-.7-3.3-1.1-5A44.19,44.19,0,0,0,70,26.5a4.67,4.67,0,0,0-.5-1c0-.1-.1-.1-.1-.2h-.1a.75.75,0,0,0-.5-.1,19.27,19.27,0,0,0-2.4-.1,88.58,88.58,0,0,0-10.2,1.2c-1.7.3-3.4.5-5.1.8l-2.5.5-1.3.2-.6.1-.3.1h-.2v.3Zm-.2-.1.1-.1h.3l.3-.1.6-.2,1.3-.3,2.5-.6c1.7-.4,3.4-.8,5-1.2,3.4-.7,6.8-1.3,10.3-1.7a12.19,12.19,0,0,1,2.7,0,2.35,2.35,0,0,1,.8.2c.2.1.3.2.5.3l.3.3a7.46,7.46,0,0,1,.7,1.2,42.43,42.43,0,0,1,1.8,5,73.9,73.9,0,0,1,2.1,10.2,72.84,72.84,0,0,1,.8,10.4v2.5a21.05,21.05,0,0,0,.2,2.5,43.74,43.74,0,0,0,.9,5,78.3,78.3,0,0,0,3.1,9.7c.6,1.6,1.3,3.2,2,4.8l1,2.4a1.42,1.42,0,0,1,.2.6c0,.1.1.3.1.4v.4c0,.1,0,.1-.1.2s-.1.2-.2.2a7.46,7.46,0,0,1-1.2.7,87.41,87.41,0,0,1-9.8,3.4,46,46,0,0,1-5,1.3,18.13,18.13,0,0,1-5.2.7,3.19,3.19,0,0,1-1.4-.3l-.3-.3c-.1-.1-.1-.1-.1-.2s-.1-.1-.1-.2l-.2-.6-1-2.4c-.7-1.6-1.3-3.2-1.9-4.8a81.69,81.69,0,0,1-3.2-9.9,30.64,30.64,0,0,1-1-5.1,24.52,24.52,0,0,1-.2-2.7V58.5a5.9,5.9,0,0,1,.2-1.4,33.54,33.54,0,0,0,.2-10,45.45,45.45,0,0,0-2.5-9.8l-.9-2.4-1-2.4-1.1-2.4c-.8-.3-1.2-1.2-1.6-1.9Z"/><path class="cls-2" d="M16.25,25.2c4.2,2.4,10.9,5.4,10.9,5.4"/><path class="cls-1" d="M16.35,25.2c.9.4,1.9.8,2.8,1.2s1.9.8,2.8,1.2a13.9,13.9,0,0,1,2.8,1.2,23.26,23.26,0,0,1,2.6,1.7v.1a11.14,11.14,0,0,1-3-.8c-.9-.4-1.8-.9-2.7-1.4L19,26.9c-.9-.5-1.7-1.1-2.6-1.6Z"/><path class="cls-2" d="M28.65,15.2c3.3,4.6,7.1,8.8,7.1,8.8"/><path class="cls-1" d="M28.65,15.2l3.8,4.2c.7.7,1.3,1.4,1.9,2.1a12.29,12.29,0,0,1,1.4,2.5l-.1.1a13,13,0,0,1-2.3-1.8,19.52,19.52,0,0,1-1.7-2.3c-.6-.8-1.1-1.6-1.6-2.3-.5-.9-1-1.7-1.4-2.5Z"/><path class="cls-2" d="M44.05,9.1l5.4,9"/><path class="cls-1" d="M44.05,9.1c.5.7,1,1.4,1.6,2.1s1,1.4,1.5,2.2,1,1.4,1.5,2.2a12.54,12.54,0,0,1,.9,2.5l-.1.1a8.6,8.6,0,0,1-1.8-2,10.08,10.08,0,0,1-1.2-2.3l-1.2-2.4a25.57,25.57,0,0,1-1.1-2.4Z"/><path class="cls-2" d="M60.75,5.7c.5,4.5,1,10.4,1,10.4"/><path class="cls-1" d="M60.85,5.7c.2.9.3,1.7.5,2.6a23.36,23.36,0,0,1,.4,2.6,20.24,20.24,0,0,1,.4,2.6,10.9,10.9,0,0,1-.3,2.6h-.1a8.09,8.09,0,0,1-.8-2.5,11.33,11.33,0,0,1-.1-2.6c0-.9-.1-1.7-.1-2.6V5.8Z"/></svg>