<svg id="Layer_1" data-name="Layer 1" xmlns="http://www.w3.org/2000/svg" viewBox="0 0 99.23 140.1"><defs><style>.cls-1{fill:#f7d23a;}</style></defs><title>Budget_low</title><path class="cls-1" d="M48.5,105v-1.9a3.59,3.59,0,0,1,.2-1.8,1.75,1.75,0,0,1,1.2-.4,6.82,6.82,0,0,1,1.2-.1,1.15,1.15,0,0,1,1.2.5,7.61,7.61,0,0,1,.3,2.1v1.8a6.77,6.77,0,0,1,2.6,1.8,10.43,10.43,0,0,1,1.9,3.2,5.64,5.64,0,0,1,.4,1.2,4.25,4.25,0,0,1,.2,1.1,2,2,0,0,1-.3,1.1,1.13,1.13,0,0,1-1.1.3,5.66,5.66,0,0,1-1.8-.3l-.4-.2L53,111.1a5.6,5.6,0,0,0-1-1.5c-.1-.1-.2-.3-.4-.4s-.4-.3-.5-.4a1.88,1.88,0,0,0-.8-.2,1.74,1.74,0,0,0-1.7,1.2l-.3.9a5.66,5.66,0,0,0-.3,1.8,2.76,2.76,0,0,0,2.2,2.8l1.4.4,1,.3.4.2,2,.7a7,7,0,0,1,2.4,1.3,3.14,3.14,0,0,1,.7,2.1,6.6,6.6,0,0,1-.1,1.4,8.33,8.33,0,0,1-.4,1.5,9.06,9.06,0,0,1-1.1,1.6,7.52,7.52,0,0,1-1.6,1.5,6.39,6.39,0,0,1-1.9.8,2.82,2.82,0,0,0-.4,1.5v.5c0,.2.1.5.1.7v.4c0,.5-.1.8-.4.9l-.9.3-.9.1c-.3,0-.5.1-.8.1-.5,0-.8-.2-.9-.5a7.49,7.49,0,0,1-.2-2.1v-2.3h-.2l-1.4-.4a9.34,9.34,0,0,1-2.5-1,4,4,0,0,1-1.4-1.5,17.38,17.38,0,0,1-1-1.9,2.66,2.66,0,0,1-.3-1.2,1.48,1.48,0,0,1,.8-1.2,3.45,3.45,0,0,1,1.8-.5,2.91,2.91,0,0,1,2.7,2.1,4.35,4.35,0,0,0,1,1.6,2.93,2.93,0,0,0,1.6.4H51a1.71,1.71,0,0,0,1.3-.7,1.76,1.76,0,0,0-.3-2.5c-.1,0-.1-.1-.2-.1a15,15,0,0,0-4.2-1.5,6,6,0,0,1-3.6-2.2,5.69,5.69,0,0,1-1.3-4,7.1,7.1,0,0,1,.5-2.9,8.76,8.76,0,0,1,1.9-2.4,4.13,4.13,0,0,1,1.1-.7,16.67,16.67,0,0,1,2-.8Z"/><path class="cls-1" d="M84.9,21.7a6.14,6.14,0,0,0-7.7-4A6.06,6.06,0,0,0,73.1,25a5.47,5.47,0,0,0,2.8,3.5,5.7,5.7,0,0,1,2.2-1.1,7,7,0,0,1,4.7.5A6,6,0,0,0,84.9,21.7Z"/><path class="cls-1" d="M72.8,14.3a13.17,13.17,0,0,0-3.4-.4c-1.2-.1-2.3-.1-3.5-.1H63a.37.37,0,0,0-.3.1,23.26,23.26,0,0,0-3.2,1c-1.1.4-2.2.8-3.2,1.2L53,17.3l-1.6.6a9.44,9.44,0,0,1-.9.3c-.2.1-.5.1-.7.2a15.93,15.93,0,0,0-2.9,1.5A18.29,18.29,0,0,0,42,24.2c-1.3,1.9-2.6,3.8-4,5.7s-2.6,3.8-4,5.7A58.52,58.52,0,0,1,29.5,41c1.3-1.9,2.5-3.9,3.7-5.9l3.5-6c1.2-2,2.3-4,3.7-6A18.41,18.41,0,0,1,45.7,18,20.59,20.59,0,0,1,49,16.3l.9-.3a1.88,1.88,0,0,1,.8-.2l1.6-.6L55.6,14c1.1-.4,2.2-.7,3.4-1.1a20,20,0,0,1,3.5-.9.9.9,0,0,0,.5-.1h.5l.9.1c.6.1,1.2.1,1.8.2,1.2.2,2.3.4,3.5.7C70.6,13.3,71.7,13.7,72.8,14.3Z"/><path class="cls-1" d="M54.4,88.6A9.16,9.16,0,0,1,56,85.5a14.93,14.93,0,0,1,2.7-2.3,31.75,31.75,0,0,1,3-1.7,4.31,4.31,0,0,0,1.1-1.1,17,17,0,0,0,1-1.4l3.9-5.7a35.06,35.06,0,0,0,3.3-6A13.79,13.79,0,0,0,72.1,61a15.33,15.33,0,0,1,.2-3.7c.2-1.2.4-2.4.7-3.5a33.74,33.74,0,0,1,1-3.4A34.54,34.54,0,0,1,75.4,47c.4-.6.6-1,.9-1.5l.6-1.5c.3-1.1.6-2.2.8-3.3l.3-.9a4.67,4.67,0,0,1,.5-1c.3-.5.7-1,1-1.5.7-.9,1.3-1.9,1.9-2.8a7.24,7.24,0,0,0,1.2-2.7v-.6a1.85,1.85,0,0,0-.2-.7,2.73,2.73,0,0,0-.6-1.2,2.66,2.66,0,0,0-2.2-1.1,7.4,7.4,0,0,0-2.9.8,30.66,30.66,0,0,0-5.6,3.8c-3.4,3-6.6,6.5-6.7,11.2a19.72,19.72,0,0,1-2.8,6.5A28.56,28.56,0,0,1,57,55.7a32,32,0,0,0,4.2-5.5,18.21,18.21,0,0,0,2.3-6.4c0-.3.1-.6.1-.8l.1-.9a5.66,5.66,0,0,1,.3-1.8A9.88,9.88,0,0,1,65.5,37a26.89,26.89,0,0,1,4.6-5.5,34.29,34.29,0,0,1,5.8-4.2,7,7,0,0,1,3.7-1.1,4.74,4.74,0,0,1,3.8,1.9,16.18,16.18,0,0,1,1,1.8,3.55,3.55,0,0,1,.2,1,2.44,2.44,0,0,1,0,1.2,6.64,6.64,0,0,1-.6,2c-.3.6-.6,1.1-.9,1.6-.7,1-1.3,2-2,2.9a11,11,0,0,0-.9,1.4l-.3.6c-.1.2-.1.5-.2.7a22.51,22.51,0,0,1-.9,3.5c-.2.6-.5,1.2-.7,1.7s-.7,1.2-.9,1.5a19.45,19.45,0,0,0-1.3,3c-.4,1.1-.7,2.1-1,3.2s-.5,2.2-.7,3.3a11.5,11.5,0,0,0-.2,3.2,15.33,15.33,0,0,1-.2,3.7,20.63,20.63,0,0,1-1.2,3.5A38.15,38.15,0,0,1,68.9,74c-1.3,1.9-2.7,3.8-4.2,5.6a12.67,12.67,0,0,0-1.1,1.3l-.7.7a3.51,3.51,0,0,1-.8.5c-1.1.5-2.1,1-3.1,1.5a13.11,13.11,0,0,0-2.8,2A11.94,11.94,0,0,0,54.4,88.6Z"/><path class="cls-1" d="M51.6,29.2a22.82,22.82,0,0,1,5.1-2.1,5.46,5.46,0,0,1,3.1.1,3.59,3.59,0,0,1,1.4,1,1.61,1.61,0,0,1,.4.7l.3.6a24.65,24.65,0,0,1,1.8,5.2c.2.9.5,1.7.7,2.6s.4,1.7.6,2.6c-.5-.8-.9-1.6-1.4-2.4s-.8-1.6-1.2-2.5c-.6-1.7-1.3-3.3-2-4.9a8.79,8.79,0,0,0-.6-1c-.1-.2-.2-.2-.3-.3a.76.76,0,0,0-.4-.2,3.36,3.36,0,0,0-2.2-.2C55.2,28.6,53.4,29.1,51.6,29.2Z"/><path class="cls-1" d="M53.3,41.8c.7-1.1,1.3-2.2,1.9-3.3A21.69,21.69,0,0,0,56.7,35a22.38,22.38,0,0,1-1,3.7c-.4,1.2-.9,2.4-1.4,3.6Z"/><path class="cls-1" d="M54.9,45.7a27,27,0,0,0,2.8-.4c.5-.1,1-.1,1.5-.2a7.57,7.57,0,0,1,1.5.1,3.18,3.18,0,0,0-1.4.2c-.5.1-.9.3-1.4.4a15.18,15.18,0,0,1-2.8.9Z"/><path class="cls-1" d="M23.3,88.6a26.21,26.21,0,0,0,3.2-6.5,28.23,28.23,0,0,0,1.5-7,4.85,4.85,0,0,0,0-1.7,12.23,12.23,0,0,0-.3-1.7L27,68.1l-1.2-7.2L23.5,46.4l-.1-.4-.1-.4c0-.3-.2-.6-.2-.9a6.8,6.8,0,0,1-.2-2,5.94,5.94,0,0,1,1.4-3.8,6.39,6.39,0,0,1,1.5-1.3,8.86,8.86,0,0,1,1.7-.8,11.63,11.63,0,0,1,1.8-.4,4.8,4.8,0,0,0,1.7-.5,3.46,3.46,0,0,1-1.6.8,12.2,12.2,0,0,0-1.7.7,7.84,7.84,0,0,0-2.6,2.2,4.83,4.83,0,0,0-.8,3.1,7.58,7.58,0,0,0,.3,1.6c.1.3.2.5.3.8l.1.5.1.5c1.2,4.8,2,9.6,2.8,14.5.4,2.4.8,4.8,1.1,7.3l.5,3.7a12.25,12.25,0,0,1,.2,1.9,13.55,13.55,0,0,1-.2,2,26.09,26.09,0,0,1-2.2,7.2A19.27,19.27,0,0,1,23.3,88.6Z"/><path class="cls-1" d="M77.6,17.6a11.19,11.19,0,0,1-2.4,3.3,8.37,8.37,0,0,1-3.6,2.2,12.1,12.1,0,0,1-4.2.5,7.61,7.61,0,0,1-2.1-.3,3.71,3.71,0,0,0-.9-.2c-.4,0-.7-.1-1.1-.1a.85.85,0,0,0-.7,0h0l-.1.1-.4.4a18.76,18.76,0,0,1-1.8,1.2c-1.2.7-2.4,1.4-3.7,2a11.92,11.92,0,0,1-2,.8l-1.2.3c-.4,0-.4.1-.5.1a2.28,2.28,0,0,0-.6,1.2,11.63,11.63,0,0,0-.4,1.8,9.51,9.51,0,0,1-1.4,4.3A22,22,0,0,1,49.1,37a17.41,17.41,0,0,0-1.2,1.4,22.11,22.11,0,0,0-1.8,3.4,4.71,4.71,0,0,0-.4,1.7,2,2,0,0,0,.1.7c.1.3.2.5.3.8a9.55,9.55,0,0,0,2.4,2.9,9.62,9.62,0,0,0,3.2,2,72.7,72.7,0,0,1,7.6,3.3c-2.6-.7-5.3-1.6-7.9-2.2a11.78,11.78,0,0,1-3.9-1.9,11.45,11.45,0,0,1-3-3.2,3.7,3.7,0,0,1-.5-1.1,5.85,5.85,0,0,1-.2-1.3,5.93,5.93,0,0,1,.5-2.3,17.62,17.62,0,0,1,1.9-3.9,5.5,5.5,0,0,1,.7-.9c.3-.3.5-.6.7-.8a5.83,5.83,0,0,0,1.1-1.5,7.74,7.74,0,0,0,.7-1.6,2.92,2.92,0,0,0,.2-.9l.2-1a17.42,17.42,0,0,1,.5-2.2,3.7,3.7,0,0,1,.5-1.1,2.66,2.66,0,0,1,1-1.1,2.6,2.6,0,0,1,1.5-.4,2.2,2.2,0,0,0,.8-.1,13.36,13.36,0,0,0,1.8-.7,39.71,39.71,0,0,0,3.6-1.7,15.05,15.05,0,0,0,1.7-1c.1-.1.3-.2.4-.3l.3-.2a.76.76,0,0,1,.5-.2h.8a4.33,4.33,0,0,1,.5.1,3.55,3.55,0,0,0,1,.2l1.1.3a12.86,12.86,0,0,0,1.9.4,10.27,10.27,0,0,0,3.9-.2A10.76,10.76,0,0,0,77.6,17.6Z"/><path class="cls-1" d="M77.4,17.1a4.44,4.44,0,0,0-1.1-.8l-1.2-.6a7.46,7.46,0,0,1-1.2-.7,8.34,8.34,0,0,1-1.2-.8,9.24,9.24,0,0,1,2.7.8,8.34,8.34,0,0,1,1.2.8A1.7,1.7,0,0,1,77.4,17.1Z"/></svg>